# xmcd
#
# Track frame offsets:
#	150
#	70338
#	80538
#	90726
#	102085
#	111532
#	123793
#
# Disc length: 1773 seconds
#
# Revision: 1
# Processed by: cddbd v1.4PL0 Copyright (c) Steve Scherf et al.
# Submitted via: audiograbber 1.82.02
#
DISCID=5706eb07
DTITLE=Walt Disney World - Country Bear Jamboree
DYEAR=1972
DGENRE=Country
TTITLE0=Show
TTITLE1=Bile 'em Cabbage Down
TTITLE2=Polly Wolly Doodle
TTITLE3=Wabash Cannonball
TTITLE4=Beatless Love
TTITLE5=Red River Valley
TTITLE6=Bang! Goes Old Betsy
EXTD=
EXTT0=
EXTT1=
EXTT2=
EXTT3=
EXTT4=
EXTT5=
EXTT6=
PLAYORDER=
